HIERARCHY
ROOT SpineBase
{
  OFFSET 0.000000 0.000000 0.000000
  CHANNELS 6 Xposition Yposition Zposition Zrotation Xrotation Yrotation
  JOINT SpineMid
  {
    OFFSET 0.000000 27.236124 0.000000
    CHANNELS 3 Zrotation Xrotation Yrotation
    JOINT SpineShoulder
    {
      OFFSET 0.078590 20.806705 -0.661881
      CHANNELS 3 Zrotation Xrotation Yrotation
      JOINT Neck
      {
        OFFSET 0.032848 7.047533 -0.497853
        CHANNELS 3 Zrotation Xrotation Yrotation
        JOINT Head
        {
          OFFSET -5.239255 11.625588 0.343595
          CHANNELS 3 Zrotation Xrotation Yrotation
          End Site
          {
            OFFSET 0 0 0
          }
        }
      }
      JOINT ShoulderLeft
      {
        OFFSET -12.573841 -3.624191 10.060602
        CHANNELS 3 Zrotation Xrotation Yrotation
        JOINT ElbowLeft
        {
          OFFSET -1.598863 -27.923882 6.772076
          CHANNELS 3 Zrotation Xrotation Yrotation
          JOINT WristLeft
          {
            OFFSET -1.801398 -21.274378 -3.456114
            CHANNELS 3 Zrotation Xrotation Yrotation
            JOINT HandLeft
            {
              OFFSET -2.038014 -1.398322 -2.018547
              CHANNELS 3 Zrotation Xrotation Yrotation
              JOINT HandTipLeft
              {
                OFFSET -1.427289 -5.500758 -1.555933
                CHANNELS 3 Zrotation Xrotation Yrotation
                End Site
                {
                  OFFSET 0 0 0
                }
              }
              JOINT ThumbLeft
              {
                OFFSET -2.394714 0.751639 -2.495823
                CHANNELS 3 Zrotation Xrotation Yrotation
                End Site
                {
                  OFFSET 0 0 0
                }
              }
            }
          }
        }
      }
      JOINT ShoulderRight
      {
        OFFSET 11.066801 -2.284145 -11.196565
        CHANNELS 3 Zrotation Xrotation Yrotation
        JOINT ElbowRight
        {
          OFFSET 6.698082 -22.611460 -2.348011
          CHANNELS 3 Zrotation Xrotation Yrotation
          JOINT WristRight
          {
            OFFSET -3.546780 -21.012306 -3.310183
            CHANNELS 3 Zrotation Xrotation Yrotation
            JOINT HandRight
            {
              OFFSET -2.154394 -6.199934 -0.183072
              CHANNELS 3 Zrotation Xrotation Yrotation
              JOINT HandTipRight
              {
                OFFSET -0.392417 -5.407766 -2.485740
                CHANNELS 3 Zrotation Xrotation Yrotation
                End Site
                {
                  OFFSET 0 0 0
                }
              }
              JOINT ThumbRight
              {
                OFFSET -2.593135 0.308693 -1.943390
                CHANNELS 3 Zrotation Xrotation Yrotation
                End Site
                {
                  OFFSET 0 0 0
                }
              }
            }
          }
        }
      }
    }
  }
  JOINT HipLeft
  {
    OFFSET -5.456773 1.027471 0.667851
    CHANNELS 3 Zrotation Xrotation Yrotation
    JOINT KneeLeft
    {
      OFFSET 1.509179 -32.760849 5.383552
      CHANNELS 3 Zrotation Xrotation Yrotation
      JOINT AnkleLeft
      {
        OFFSET 8.359781 -31.326766 9.683082
        CHANNELS 3 Zrotation Xrotation Yrotation
        JOINT FootLeft
        {
          OFFSET -5.741465 -3.208402 -9.231405
          CHANNELS 3 Zrotation Xrotation Yrotation
          End Site
          {
            OFFSET 0 0 0
          }
        }
      }
    }
  }
  JOINT HipRight
  {
    OFFSET 5.370140 0.914181 -6.979525
    CHANNELS 3 Zrotation Xrotation Yrotation
    JOINT KneeRight
    {
      OFFSET 5.949659 -26.399979 -5.190738
      CHANNELS 3 Zrotation Xrotation Yrotation
      JOINT AnkleRight
      {
        OFFSET 8.484744 -31.006150 6.775633
        CHANNELS 3 Zrotation Xrotation Yrotation
        JOINT FootRight
        {
          OFFSET -5.878109 -3.185572 -9.213807
          CHANNELS 3 Zrotation Xrotation Yrotation
          End Site
          {
            OFFSET 0 0 0
          }
        }
      }
    }
  }
}
MOTION
Frames: 13
Frame Time: 0.033333
3.918239 67.670277 335.656270 -0.000000 0.000000 35.234717 -0.000000 0.000000 -35.234717 -0.000000 0.000000 0.000000 -0.000000 0.000000 0.000000 0.000000 0.000000 0.000000 -0.000000 0.000000 0.000000 -0.000000 0.000000 0.000000 -0.000000 0.000000 0.000000 -0.000000 0.000000 0.000000 0.000000 0.000000 0.000000 0.000000 0.000000 0.000000 -0.000000 0.000000 0.000000 -0.000000 0.000000 0.000000 -0.000000 0.000000 0.000000 -0.000000 0.000000 0.000000 0.000000 0.000000 0.000000 0.000000 0.000000 0.000000 -0.000000 0.000000 -35.234717 -0.000000 0.000000 0.000000 -0.000000 0.000000 0.000000 0.000000 0.000000 0.000000 -0.000000 0.000000 -35.234717 -0.000000 0.000000 0.000000 -0.000000 0.000000 0.000000 0.000000 0.000000 0.000000
4.118187 67.505606 335.698957 0.126473 -0.076272 34.833882 -0.060245 0.134846 -34.833727 -0.000000 0.000000 0.000000 -0.000000 0.000000 0.000000 0.000000 0.000000 0.000000 -0.075710 0.808682 -0.064238 -2.326955 2.014802 0.240365 2.857332 -1.063142 -3.264612 1.192496 0.771462 2.079516 0.000000 0.000000 0.000000 0.000000 0.000000 0.000000 -0.000000 0.000000 0.000000 0.963995 0.117062 -0.172829 -1.877916 0.725653 -0.091414 0.226159 -5.460948 0.909203 0.000000 0.000000 0.000000 0.000000 0.000000 0.000000 -0.060245 0.134846 -34.833727 -0.000000 0.000000 0.000000 -0.000000 0.000000 0.000000 0.000000 0.000000 0.000000 -0.060245 0.134846 -34.833727 -0.000000 0.000000 0.000000 -0.000000 0.000000 0.000000 0.000000 0.000000 0.000000
4.309217 67.371742 335.707926 0.222396 -0.160494 34.337202 -0.093112 0.257969 -34.336681 -0.000000 0.000000 0.000000 -0.000000 0.000000 0.000000 0.000000 0.000000 0.000000 -0.132571 1.456857 -0.114231 -4.031708 3.777303 0.430754 5.646070 -2.406082 -6.145488 1.773309 2.059839 4.000775 0.000000 0.000000 0.000000 0.000000 0.000000 0.000000 -0.000000 0.000000 0.000000 1.857613 0.330216 -0.354566 -3.462091 1.379934 -0.193345 0.606149 -10.058041 1.612031 0.000000 0.000000 0.000000 0.000000 0.000000 0.000000 -0.093112 0.257969 -34.336681 -0.000000 0.000000 0.000000 0.343352 0.075701 -1.127478 0.000000 0.000000 0.000000 -0.093112 0.257969 -34.336681 -0.000000 0.000000 0.000000 0.355865 0.057192 -1.139850 0.000000 0.000000 0.000000
4.491329 67.268687 335.683178 0.288555 -0.252819 33.743519 -0.099512 0.370511 -33.742560 -0.000000 0.000000 0.000000 -0.446667 -1.341936 -0.598074 0.000000 0.000000 0.000000 -0.172132 1.955847 -0.151419 -5.133104 5.303987 0.552056 8.379324 -3.989491 -8.824278 1.566798 3.401265 6.037816 0.000000 0.000000 0.000000 0.000000 0.000000 0.000000 -0.064227 -1.179130 -0.343715 2.744251 1.831603 -0.261225 -4.765609 1.969585 -0.313338 1.083337 -13.911902 2.179759 0.000000 0.000000 0.000000 0.000000 0.000000 0.000000 -0.099512 0.370511 -33.742560 -0.657430 -0.813802 -0.424771 1.167834 0.950936 -1.319259 0.000000 0.000000 0.000000 -0.099512 0.370511 -33.742560 -1.179517 -0.077443 -0.280501 1.711205 0.189988 -1.465384 0.000000 0.000000 0.000000
4.664523 67.196440 335.624713 0.325533 -0.353449 33.051015 -0.080096 0.473794 -33.049680 -0.000000 0.000000 0.000000 -1.179374 -2.192496 -0.980996 0.000000 0.000000 0.000000 -0.195430 2.313729 -0.176795 -5.651323 6.616161 0.588749 11.140181 -5.853674 -11.452403 0.344453 4.370913 8.504146 0.000000 0.000000 0.000000 0.000000 0.000000 0.000000 -0.108291 -1.688959 -0.491586 3.556485 2.753864 -0.370135 -5.798274 2.500241 -0.456755 1.622697 -17.131768 2.658997 0.000000 0.000000 0.000000 0.000000 0.000000 0.000000 -0.080096 0.473794 -33.049680 -0.886424 -1.214156 -0.606670 1.565631 1.421558 -1.780040 0.000000 0.000000 0.000000 0.744790 0.548603 -33.069405 -2.219424 -0.688992 -0.399424 2.276228 0.354809 -1.984115 0.000000 0.000000 0.000000
4.828799 67.155001 335.532531 0.333709 -0.462639 32.257234 -0.035291 0.569340 -32.255711 -0.000000 0.000000 0.000000 -2.208477 -3.232896 -1.468293 0.000000 0.000000 0.000000 -0.203063 2.535614 -0.190966 -5.601585 7.733756 0.527531 14.069634 -8.120654 -14.155179 -2.132200 4.656080 11.713347 0.000000 0.000000 0.000000 0.000000 0.000000 0.000000 -0.164676 -2.261859 -0.657879 4.328936 3.836515 -0.495599 -6.566790 2.976328 -0.627094 2.203802 -19.806361 3.079655 0.000000 0.000000 0.000000 0.000000 0.000000 0.000000 -0.035291 0.569340 -32.255711 -1.121675 -1.678760 -0.809611 1.968609 1.968995 -2.255542 0.000000 0.000000 0.000000 0.973938 0.755792 -32.258694 -2.710171 -1.006796 -0.557129 2.838971 0.570373 -2.522125 0.000000 0.000000 0.000000
4.972455 67.152948 335.408384 0.281832 -0.564174 31.425345 0.053656 0.628363 -31.424252 0.271778 -0.888526 0.025434 -3.927282 -3.803550 -2.155671 0.000000 0.000000 0.000000 -0.458836 3.746243 -0.224187 -4.942563 8.602628 0.329076 19.972643 -13.567278 -17.473297 -8.685274 5.321359 17.136672 0.000000 0.000000 0.000000 0.000000 0.000000 0.000000 -0.444641 -1.696540 -0.772578 5.111803 4.440382 -0.653018 -7.805377 4.695287 -1.123236 4.607682 -23.905068 3.792935 0.000000 0.000000 0.000000 0.000000 0.000000 0.000000 0.902777 0.758957 -31.301066 -1.941946 -2.813402 -1.170513 2.259750 2.675716 -2.716412 0.000000 0.000000 0.000000 1.309421 1.063146 -31.377901 -3.122316 -1.572651 -0.775087 3.302749 0.931509 -3.036857 0.000000 0.000000 0.000000
5.104485 67.192548 335.238932 0.221435 -0.679336 30.487890 -0.044282 -0.138623 -30.475380 -0.000425 -0.257314 0.012305 -5.492617 -5.074063 -2.888002 0.000000 0.000000 0.000000 -0.357202 3.990654 -0.209377 -3.481125 9.152812 -0.048142 24.615428 -19.489236 -18.016462 -15.834186 4.895643 21.612266 0.000000 0.000000 0.000000 0.000000 0.000000 0.000000 -0.426029 -1.940448 -0.901293 5.643635 5.410878 -0.800698 -8.246513 5.236319 -1.366466 5.655257 -24.865654 4.099671 0.000000 0.000000 0.000000 0.000000 0.000000 0.000000 1.184684 0.840114 -30.337419 -2.298653 -3.484656 -1.431005 2.605353 3.356395 -3.195158 0.000000 0.000000 0.000000 1.636420 1.332411 -30.409210 -3.636243 -2.091288 -1.002516 3.866010 1.284943 -3.556531 0.000000 0.000000 0.000000
5.205013 67.235327 335.093284 0.103633 -0.913970 29.404344 -0.031401 -0.199664 -29.394255 0.019771 -0.287149 0.010764 -7.195529 -6.089946 -3.579514 0.000000 0.000000 0.000000 -0.261194 3.955733 -0.179005 -1.614819 9.913231 -0.503662 28.199198 -23.560240 -20.491500 -21.922439 4.623563 26.909556 0.000000 0.000000 0.000000 0.000000 0.000000 0.000000 -0.439958 -2.584962 -1.177952 6.353951 7.412796 -1.013978 -7.455254 4.365121 -1.324466 4.532758 -23.603759 3.870079 0.000000 0.000000 0.000000 0.000000 0.000000 0.000000 1.808855 1.156689 -29.203475 -2.884663 -4.466296 -1.788677 3.097792 4.110082 -3.839776 0.000000 0.000000 0.000000 2.052484 1.701523 -29.296828 -4.197743 -2.571557 -1.241505 4.550710 1.601295 -4.273691 0.000000 0.000000 0.000000
5.356854 67.289452 334.893973 0.056099 -0.982876 27.966391 -0.024088 -0.211534 -27.957804 0.021219 -0.309606 0.009381 -8.997603 -7.288583 -4.326702 0.000000 0.000000 0.000000 -0.092997 3.416359 -0.114353 0.328600 10.533975 -1.040044 30.693971 -26.333597 -24.194900 -26.047478 -0.294372 33.960909 0.000000 0.000000 0.000000 0.000000 0.000000 0.000000 -0.525136 -3.755579 -1.548728 6.996345 10.058319 -1.257638 -5.474684 2.886451 -1.132010 1.988847 -22.991053 3.633172 0.000000 0.000000 0.000000 0.000000 0.000000 0.000000 2.158785 1.095163 -27.715213 -3.634463 -4.937460 -2.123350 3.716377 4.718582 -4.573938 0.000000 0.000000 0.000000 2.073239 1.901027 -27.830051 -4.628125 -2.783688 -1.444178 5.271770 1.869371 -5.081425 0.000000 0.000000 0.000000
5.584040 67.380687 334.562873 0.050918 -1.194985 26.219995 0.002511 -0.270844 -26.209700 0.046573 -0.339951 0.012906 -11.018895 -8.083136 -4.975125 0.000000 0.000000 0.000000 -0.218808 1.776879 -0.020369 2.318375 11.692542 -1.583874 34.257095 -30.134024 -27.584058 -31.567026 -5.220921 41.453496 0.000000 0.000000 0.000000 0.000000 0.000000 0.000000 -0.990611 -5.104093 -2.019929 8.011537 13.221325 -1.595665 -3.153825 1.514950 -0.872927 -0.936231 -22.931232 3.509151 0.000000 0.000000 0.000000 0.000000 0.000000 0.000000 2.548920 1.569786 -25.939976 -4.324409 -5.989777 -2.572667 4.500921 5.580788 -5.551431 0.000000 0.000000 0.000000 1.769353 2.101271 -26.068366 -4.828228 -2.635159 -1.579535 6.100766 2.047611 -6.208829 0.000000 0.000000 0.000000
5.801470 67.421931 334.401457 0.105894 -1.645480 24.606509 -0.033467 -0.403321 -24.591341 0.063573 -0.363819 0.017248 -12.966895 -7.841623 -5.149869 0.000000 0.000000 0.000000 -0.305872 2.390076 -0.026407 3.880736 11.186777 -1.935712 44.006480 -39.837951 -17.396019 -42.747018 1.537891 41.827864 0.000000 0.000000 0.000000 0.000000 0.000000 0.000000 -1.478208 -6.300455 -2.551543 9.403228 16.649281 -2.141510 -1.933818 -0.103345 -0.387341 -2.162656 -22.207320 3.088714 0.000000 0.000000 0.000000 0.000000 0.000000 0.000000 3.210697 2.858571 -24.306021 -5.073952 -7.799562 -3.169560 5.330418 6.534864 -6.430368 0.000000 0.000000 0.000000 1.815813 2.802821 -24.402191 -5.341524 -2.919099 -1.856665 7.087167 2.215912 -7.224852 0.000000 0.000000 0.000000
6.151104 67.552435 333.854629 0.214997 -2.017545 22.433443 0.063461 -0.432256 -22.409674 0.101231 -0.362232 0.027520 -14.708474 -8.212945 -5.582672 0.000000 0.000000 0.000000 -0.364341 0.523288 0.126562 4.710935 11.753192 -2.335492 51.474055 -43.710739 -0.636806 -46.711228 10.995677 36.002350 0.000000 0.000000 0.000000 0.000000 0.000000 0.000000 -2.587141 -8.467177 -3.313175 11.233483 20.820865 -2.799080 -2.278522 -0.188369 -0.558030 -2.034622 -21.702290 3.255072 0.000000 0.000000 0.000000 0.000000 0.000000 0.000000 3.175795 3.720225 -22.162066 -5.474642 -8.824274 -3.590824 6.239333 7.349858 -7.809490 0.000000 0.000000 0.000000 1.351205 3.376318 -22.146008 -5.301657 -3.108307 -2.092132 7.925947 2.542257 -8.699911 0.000000 0.000000 0.000000
